<svg width="64" height="64" viewBox="0 0 64 64" fill="none" xmlns="http://www.w3.org/2000/svg">
<g clip-path="url(#clip0_3_4)">
<rect width="64" height="64" fill="white"/>
<rect x="0.5" y="0.5" width="63" height="63" rx="4.5" fill="#75AFE6" stroke="#5F92CE"/>
<path d="M25.862 32.4872H26.0705L26.2024 32.6636L27.8607 35.2949L30.7521 28.6085L31.3695 27.1815L31.5821 28.737L33.3877 38.6478L37.1047 19.4783L39.5611 35.0384L41.5516 32.741L41.6816 32.5902H41.8708C51.9704 32.5902 52.4017 33.532 42.0599 33.532L39.5823 36.3923L38.9646 37.1048L38.83 36.1399L37.0405 25.4165L33.2761 44.5218L30.9291 30.4285L28.3586 36.3735L28.0625 37.0586L27.6213 36.4708L25.6544 33.4286C8.54016 33.4286 9.12208 32.4868 25.8624 32.4868L25.862 32.4872Z" fill="white"/>
</g>
<defs>
<clipPath id="clip0_3_4">
<rect width="64" height="64" fill="white"/>
</clipPath>
</defs>
</svg>
